<?xml version="1.0" encoding="UTF-8"?>
<svg xmlns="http://www.w3.org/2000/svg" xmlns:xlink="http://www.w3.org/1999/xlink" width="207px" height="70px" viewBox="0 0 206 70" version="1.1">
<defs>
<linearGradient id="linear0" gradientUnits="userSpaceOnUse" x1="176.8876" y1="215.9241" x2="176.8876" y2="67.018" gradientTransform="matrix(0.214583,0,0,0.215385,0,0)">
<stop offset="0" style="stop-color:rgb(49.019608%,78.039216%,61.176471%);stop-opacity:1;"/>
<stop offset="1" style="stop-color:rgb(18.039216%,52.941176%,54.901961%);stop-opacity:1;"/>
</linearGradient>
<linearGradient id="linear1" gradientUnits="userSpaceOnUse" x1="133.3977" y1="215.9241" x2="133.3977" y2="67.018" gradientTransform="matrix(0.214583,0,0,0.215385,0,0)">
<stop offset="0" style="stop-color:rgb(49.019608%,78.039216%,61.176471%);stop-opacity:1;"/>
<stop offset="1" style="stop-color:rgb(18.039216%,52.941176%,54.901961%);stop-opacity:1;"/>
</linearGradient>
<linearGradient id="linear2" gradientUnits="userSpaceOnUse" x1="160.1082" y1="215.9241" x2="160.1082" y2="67.018" gradientTransform="matrix(0.214583,0,0,0.215385,0,0)">
<stop offset="0" style="stop-color:rgb(49.019608%,78.039216%,61.176471%);stop-opacity:1;"/>
<stop offset="1" style="stop-color:rgb(18.039216%,52.941176%,54.901961%);stop-opacity:1;"/>
</linearGradient>
<linearGradient id="linear3" gradientUnits="userSpaceOnUse" x1="160.1082" y1="215.9241" x2="160.1082" y2="67.018" gradientTransform="matrix(0.214583,0,0,0.215385,0,0)">
<stop offset="0" style="stop-color:rgb(49.019608%,78.039216%,61.176471%);stop-opacity:1;"/>
<stop offset="1" style="stop-color:rgb(18.039216%,52.941176%,54.901961%);stop-opacity:1;"/>
</linearGradient>
<linearGradient id="linear4" gradientUnits="userSpaceOnUse" x1="67.3662" y1="215.9241" x2="67.3662" y2="67.018" gradientTransform="matrix(0.214583,0,0,0.215385,0,0)">
<stop offset="0" style="stop-color:rgb(49.019608%,78.039216%,61.176471%);stop-opacity:1;"/>
<stop offset="1" style="stop-color:rgb(18.039216%,52.941176%,54.901961%);stop-opacity:1;"/>
</linearGradient>
<linearGradient id="linear5" gradientUnits="userSpaceOnUse" x1="71.2922" y1="215.9241" x2="71.2922" y2="67.018" gradientTransform="matrix(0.214583,0,0,0.215385,0,0)">
<stop offset="0" style="stop-color:rgb(49.019608%,78.039216%,61.176471%);stop-opacity:1;"/>
<stop offset="1" style="stop-color:rgb(18.039216%,52.941176%,54.901961%);stop-opacity:1;"/>
</linearGradient>
<linearGradient id="linear6" gradientUnits="userSpaceOnUse" x1="107.0521" y1="215.9241" x2="107.0521" y2="67.018" gradientTransform="matrix(0.214583,0,0,0.215385,0,0)">
<stop offset="0" style="stop-color:rgb(49.019608%,78.039216%,61.176471%);stop-opacity:1;"/>
<stop offset="1" style="stop-color:rgb(18.039216%,52.941176%,54.901961%);stop-opacity:1;"/>
</linearGradient>
<linearGradient id="linear7" gradientUnits="userSpaceOnUse" x1="84.0497" y1="215.9241" x2="84.0497" y2="67.018" gradientTransform="matrix(0.214583,0,0,0.215385,0,0)">
<stop offset="0" style="stop-color:rgb(49.019608%,78.039216%,61.176471%);stop-opacity:1;"/>
<stop offset="1" style="stop-color:rgb(18.039216%,52.941176%,54.901961%);stop-opacity:1;"/>
</linearGradient>
<linearGradient id="linear8" gradientUnits="userSpaceOnUse" x1="85.6623" y1="215.9241" x2="85.6623" y2="67.018" gradientTransform="matrix(0.214583,0,0,0.215385,0,0)">
<stop offset="0" style="stop-color:rgb(49.019608%,78.039216%,61.176471%);stop-opacity:1;"/>
<stop offset="1" style="stop-color:rgb(18.039216%,52.941176%,54.901961%);stop-opacity:1;"/>
</linearGradient>
<linearGradient id="linear9" gradientUnits="userSpaceOnUse" x1="215.4183" y1="215.9241" x2="215.4183" y2="67.018" gradientTransform="matrix(0.214583,0,0,0.215385,0,0)">
<stop offset="0" style="stop-color:rgb(49.019608%,78.039216%,61.176471%);stop-opacity:1;"/>
<stop offset="1" style="stop-color:rgb(18.039216%,52.941176%,54.901961%);stop-opacity:1;"/>
</linearGradient>
<linearGradient id="linear10" gradientUnits="userSpaceOnUse" x1="104.7999" y1="215.9241" x2="104.7999" y2="67.018" gradientTransform="matrix(0.214583,0,0,0.215385,0,0)">
<stop offset="0" style="stop-color:rgb(49.019608%,78.039216%,61.176471%);stop-opacity:1;"/>
<stop offset="1" style="stop-color:rgb(18.039216%,52.941176%,54.901961%);stop-opacity:1;"/>
</linearGradient>
<linearGradient id="linear11" gradientUnits="userSpaceOnUse" x1="72.1102" y1="215.9241" x2="72.1102" y2="67.018" gradientTransform="matrix(0.214583,0,0,0.215385,0,0)">
<stop offset="0" style="stop-color:rgb(49.019608%,78.039216%,61.176471%);stop-opacity:1;"/>
<stop offset="1" style="stop-color:rgb(18.039216%,52.941176%,54.901961%);stop-opacity:1;"/>
</linearGradient>
<linearGradient id="linear12" gradientUnits="userSpaceOnUse" x1="130.8284" y1="215.9241" x2="130.8284" y2="67.018" gradientTransform="matrix(0.214583,0,0,0.215385,0,0)">
<stop offset="0" style="stop-color:rgb(49.019608%,78.039216%,61.176471%);stop-opacity:1;"/>
<stop offset="1" style="stop-color:rgb(18.039216%,52.941176%,54.901961%);stop-opacity:1;"/>
</linearGradient>
<linearGradient id="linear13" gradientUnits="userSpaceOnUse" x1="189.3898" y1="215.9241" x2="189.3898" y2="67.018" gradientTransform="matrix(0.214583,0,0,0.215385,0,0)">
<stop offset="0" style="stop-color:rgb(49.019608%,78.039216%,61.176471%);stop-opacity:1;"/>
<stop offset="1" style="stop-color:rgb(18.039216%,52.941176%,54.901961%);stop-opacity:1;"/>
</linearGradient>
</defs>
<g id="surface1">
<path style=" stroke:none;fill-rule:nonzero;fill:rgb(34.901961%,74.901961%,60.392157%);fill-opacity:1;" d="M 165.292969 33.902344 L 166.085938 33.902344 L 166.085938 33.515625 C 166.085938 32.414062 165.207031 32.027344 164.199219 32.027344 C 162.78125 32.027344 161.34375 32.804688 160.765625 33.148438 C 160.617188 33.234375 160.445312 33.167969 160.359375 33.039062 L 159.050781 30.5 C 158.984375 30.371094 159.027344 30.21875 159.136719 30.132812 C 159.777344 29.722656 161.816406 28.539062 164.585938 28.539062 C 168.46875 28.539062 170.550781 30.5 170.550781 34.007812 L 170.550781 38.445312 C 170.550781 38.769531 170.808594 39.027344 171.128906 39.027344 L 171.839844 39.027344 C 171.988281 39.027344 172.117188 39.15625 172.117188 39.308594 L 172.117188 42 C 172.117188 42.152344 171.988281 42.28125 171.839844 42.28125 L 168.253906 42.28125 C 166.96875 42.28125 166.472656 41.527344 166.472656 40.878906 L 166.472656 40.792969 C 166.472656 40.558594 166.515625 40.382812 166.515625 40.382812 L 166.472656 40.382812 C 166.472656 40.382812 165.378906 42.601562 162.527344 42.601562 C 160.1875 42.601562 158.148438 41.160156 158.148438 38.46875 C 158.167969 34.484375 163.234375 33.902344 165.292969 33.902344 Z M 163.878906 39.285156 C 165.015625 39.285156 166.152344 37.90625 166.152344 36.746094 L 166.152344 36.421875 L 165.746094 36.421875 C 164.261719 36.421875 162.675781 36.894531 162.675781 38.078125 C 162.675781 38.789062 163.148438 39.285156 163.878906 39.285156 Z M 163.878906 39.285156 "/>
<path style=" stroke:none;fill-rule:nonzero;fill:rgb(34.901961%,74.901961%,60.392157%);fill-opacity:1;" d="M 173.425781 38.984375 L 174.820312 38.984375 L 174.820312 32.09375 L 173.296875 32.09375 C 173.148438 32.09375 173.019531 31.964844 173.019531 31.8125 L 173.019531 29.121094 C 173.019531 28.96875 173.148438 28.839844 173.296875 28.839844 L 179.027344 28.839844 C 179.175781 28.839844 179.304688 28.96875 179.304688 29.121094 L 179.304688 38.984375 L 180.699219 38.984375 C 180.851562 38.984375 180.980469 39.113281 180.980469 39.265625 L 180.980469 41.957031 C 180.980469 42.109375 180.851562 42.238281 180.699219 42.238281 L 173.40625 42.238281 C 173.253906 42.238281 173.125 42.109375 173.125 41.957031 L 173.125 39.265625 C 173.148438 39.113281 173.277344 38.984375 173.425781 38.984375 Z M 175.164062 23.605469 L 178.984375 23.605469 C 179.132812 23.605469 179.261719 23.734375 179.261719 23.886719 L 179.261719 26.835938 C 179.261719 26.988281 179.132812 27.117188 178.984375 27.117188 L 175.164062 27.117188 C 175.015625 27.117188 174.886719 26.988281 174.886719 26.835938 L 174.886719 23.90625 C 174.886719 23.734375 175.015625 23.605469 175.164062 23.605469 Z M 175.164062 23.605469 "/>
<path style=" stroke:none;fill-rule:nonzero;fill:rgb(34.901961%,74.901961%,60.392157%);fill-opacity:1;" d="M 182.074219 37.5 L 185.269531 37.5 C 185.421875 37.5 185.550781 37.628906 185.550781 37.777344 L 185.550781 38.167969 C 185.550781 38.769531 186.195312 39.136719 187.503906 39.136719 C 188.574219 39.136719 189.132812 38.875 189.132812 38.359375 C 189.132812 37.519531 188.234375 37.414062 186.515625 36.851562 C 184.5625 36.207031 182.265625 35.257812 182.265625 32.542969 C 182.265625 29.398438 185.441406 28.515625 187.996094 28.515625 C 190.054688 28.515625 193.105469 29.25 193.105469 31.425781 L 193.105469 32.953125 C 193.105469 33.105469 192.976562 33.234375 192.824219 33.234375 L 189.628906 33.234375 C 189.476562 33.234375 189.347656 33.105469 189.347656 32.953125 L 189.347656 32.628906 C 189.347656 32.222656 188.960938 31.898438 187.996094 31.898438 C 187.265625 31.898438 186.730469 32.050781 186.730469 32.566406 C 186.730469 33.363281 187.804688 33.6875 189.070312 34.03125 C 191.085938 34.570312 193.617188 35.410156 193.617188 38.1875 C 193.617188 41.203125 190.679688 42.515625 187.523438 42.515625 C 185.140625 42.515625 181.816406 41.503906 181.816406 39.265625 L 181.816406 37.757812 C 181.773438 37.628906 181.902344 37.5 182.074219 37.5 Z M 182.074219 37.5 "/>
<path style=" stroke:none;fill-rule:nonzero;fill:rgb(34.901961%,74.901961%,60.392157%);fill-opacity:1;" d="M 157.355469 38.984375 L 155.960938 38.984375 L 155.960938 33.535156 C 155.960938 29.832031 154.050781 28.515625 151.753906 28.515625 C 149.691406 28.515625 148.0625 29.617188 147.332031 31.035156 L 147.289062 31.035156 C 146.644531 29.164062 145.273438 28.515625 143.8125 28.515625 C 141.5625 28.515625 140.25 30.046875 139.585938 31.101562 L 139.542969 31.101562 C 139.542969 31.101562 139.566406 30.929688 139.566406 30.777344 L 139.566406 30.324219 C 139.566406 29.421875 138.921875 28.820312 137.699219 28.820312 L 133.75 28.820312 C 133.640625 28.820312 133.558594 28.882812 133.515625 28.949219 C 135.125 30.671875 136.109375 32.976562 136.109375 35.515625 C 136.109375 38.015625 135.167969 40.277344 133.597656 41.976562 C 133.621094 42.109375 133.726562 42.214844 133.878906 42.214844 L 141.175781 42.214844 C 141.324219 42.214844 141.453125 42.085938 141.453125 41.933594 L 141.453125 39.242188 C 141.453125 39.09375 141.324219 38.964844 141.175781 38.964844 L 139.78125 38.964844 L 139.78125 36.9375 C 139.78125 34.785156 140.292969 32.585938 142.355469 32.585938 C 143.214844 32.585938 143.382812 33.296875 143.382812 34.289062 L 143.382812 42.238281 L 149.265625 42.238281 C 149.414062 42.238281 149.542969 42.109375 149.542969 41.957031 L 149.542969 39.265625 C 149.542969 39.113281 149.414062 38.984375 149.265625 38.984375 L 147.871094 38.984375 L 147.871094 36.703125 C 147.871094 34.460938 148.492188 32.609375 150.445312 32.609375 C 151.300781 32.609375 151.472656 33.320312 151.472656 34.3125 L 151.472656 42.257812 L 157.355469 42.257812 C 157.503906 42.257812 157.632812 42.128906 157.632812 41.976562 L 157.632812 39.285156 C 157.65625 39.113281 157.527344 38.984375 157.355469 38.984375 Z M 157.355469 38.984375 "/>
<path style=" stroke:none;fill-rule:nonzero;fill:rgb(17.647059%,53.333333%,54.509804%);fill-opacity:1;" d="M 64.417969 44.972656 L 64.417969 32.007812 C 64.417969 31.683594 64.160156 31.425781 63.839844 31.425781 L 62.660156 31.425781 C 62.507812 31.425781 62.378906 31.296875 62.378906 31.144531 L 62.378906 29.25 C 62.378906 29.097656 62.507812 28.96875 62.660156 28.96875 L 65.769531 28.96875 C 66.992188 28.96875 67.402344 29.550781 67.402344 30.21875 L 67.402344 30.304688 C 67.402344 30.628906 67.378906 30.90625 67.378906 30.90625 L 67.421875 30.90625 C 67.421875 30.90625 68.558594 28.667969 71.671875 28.667969 C 75.253906 28.667969 77.527344 31.511719 77.527344 35.625 C 77.527344 39.847656 74.953125 42.582031 71.476562 42.582031 C 68.859375 42.582031 67.65625 40.707031 67.65625 40.707031 L 67.613281 40.707031 C 67.613281 40.707031 67.699219 41.179688 67.699219 41.847656 L 67.699219 44.992188 L 69.332031 44.992188 C 69.480469 44.992188 69.609375 45.125 69.609375 45.273438 L 69.609375 47.191406 C 69.609375 47.339844 69.480469 47.472656 69.332031 47.472656 L 62.765625 47.472656 C 62.617188 47.472656 62.488281 47.339844 62.488281 47.191406 L 62.488281 45.273438 C 62.488281 45.125 62.617188 44.992188 62.765625 44.992188 L 64.417969 44.992188 Z M 70.898438 39.761719 C 72.722656 39.761719 74.222656 38.273438 74.222656 35.644531 C 74.222656 33.125 72.871094 31.488281 70.917969 31.488281 C 69.203125 31.488281 67.59375 32.738281 67.59375 35.6875 C 67.613281 37.734375 68.753906 39.761719 70.898438 39.761719 Z M 70.898438 39.761719 "/>
<path style=" stroke:none;fill-rule:nonzero;fill:rgb(17.647059%,53.333333%,54.509804%);fill-opacity:1;" d="M 85.574219 28.644531 C 89.632812 28.644531 92.871094 31.53125 92.871094 35.601562 C 92.871094 39.695312 89.632812 42.558594 85.597656 42.558594 C 81.542969 42.558594 78.300781 39.695312 78.300781 35.601562 C 78.324219 31.53125 81.5625 28.644531 85.574219 28.644531 Z M 85.617188 39.738281 C 87.742188 39.738281 89.546875 38.078125 89.546875 35.601562 C 89.546875 33.148438 87.765625 31.46875 85.617188 31.46875 C 83.472656 31.46875 81.671875 33.167969 81.671875 35.601562 C 81.671875 38.078125 83.453125 39.738281 85.617188 39.738281 Z M 85.617188 39.738281 "/>
<path style=" stroke:none;fill-rule:nonzero;fill:rgb(17.647059%,53.333333%,54.509804%);fill-opacity:1;" d="M 94.203125 39.761719 L 95.832031 39.761719 L 95.832031 32.007812 C 95.832031 31.683594 95.574219 31.425781 95.253906 31.425781 L 94.050781 31.425781 C 93.902344 31.425781 93.773438 31.296875 93.773438 31.144531 L 93.773438 29.25 C 93.773438 29.097656 93.902344 28.96875 94.050781 28.96875 L 97.25 28.96875 C 98.40625 28.96875 98.964844 29.507812 98.964844 30.457031 L 98.964844 31.058594 C 98.964844 31.339844 98.921875 31.640625 98.921875 31.640625 L 98.964844 31.640625 C 99.117188 31.230469 100.53125 28.667969 103.835938 28.667969 C 106.667969 28.667969 108.277344 30.195312 108.277344 33.730469 L 108.277344 39.804688 L 109.910156 39.804688 C 110.058594 39.804688 110.1875 39.933594 110.1875 40.082031 L 110.1875 41.976562 C 110.1875 42.128906 110.058594 42.257812 109.910156 42.257812 L 104.996094 42.257812 L 104.996094 34.398438 C 104.996094 32.78125 104.546875 31.683594 102.894531 31.683594 C 100.511719 31.683594 99.09375 33.964844 99.09375 36.292969 L 99.09375 39.78125 L 100.703125 39.78125 C 100.855469 39.78125 100.984375 39.910156 100.984375 40.0625 L 100.984375 41.957031 C 100.984375 42.109375 100.855469 42.238281 100.703125 42.238281 L 94.203125 42.238281 C 94.050781 42.238281 93.921875 42.109375 93.921875 41.957031 L 93.921875 40.0625 C 93.902344 39.890625 94.03125 39.761719 94.203125 39.761719 Z M 94.203125 39.761719 "/>
<path style=" stroke:none;fill-rule:nonzero;fill:rgb(17.647059%,53.333333%,54.509804%);fill-opacity:1;" d="M 112.121094 31.425781 L 110.382812 31.425781 C 110.230469 31.425781 110.101562 31.296875 110.101562 31.144531 L 110.101562 29.25 C 110.101562 29.097656 110.230469 28.96875 110.382812 28.96875 L 112.226562 28.96875 L 112.226562 25.628906 C 112.226562 25.480469 112.355469 25.351562 112.507812 25.351562 L 115.125 25.351562 C 115.273438 25.351562 115.402344 25.480469 115.402344 25.628906 L 115.402344 28.96875 L 118.128906 28.96875 C 118.277344 28.96875 118.40625 29.097656 118.40625 29.25 L 118.40625 31.144531 C 118.40625 31.296875 118.277344 31.425781 118.128906 31.425781 L 115.402344 31.425781 L 115.402344 37.023438 C 115.402344 39.285156 117.121094 39.609375 118.042969 39.609375 C 118.148438 39.609375 118.257812 39.609375 118.34375 39.609375 C 118.515625 39.609375 118.644531 39.738281 118.644531 39.890625 L 118.644531 42.042969 C 118.644531 42.195312 118.535156 42.300781 118.386719 42.324219 C 118.214844 42.34375 117.933594 42.367188 117.632812 42.367188 C 115.769531 42.367188 112.097656 41.828125 112.097656 37.371094 L 112.097656 31.425781 Z M 112.121094 31.425781 "/>
<path style=" stroke:none;fill-rule:nonzero;fill:rgb(17.647059%,53.333333%,54.509804%);fill-opacity:1;" d="M 126.5625 28.644531 C 130.617188 28.644531 133.855469 31.53125 133.855469 35.601562 C 133.855469 39.695312 130.617188 42.558594 126.582031 42.558594 C 122.527344 42.558594 119.285156 39.695312 119.285156 35.601562 C 119.285156 31.53125 122.546875 28.644531 126.5625 28.644531 Z M 126.582031 39.738281 C 128.707031 39.738281 130.507812 38.078125 130.507812 35.601562 C 130.507812 33.148438 128.730469 31.46875 126.582031 31.46875 C 124.4375 31.46875 122.632812 33.167969 122.632812 35.601562 C 122.632812 38.078125 124.4375 39.738281 126.582031 39.738281 Z M 126.582031 39.738281 "/>
<path style=" stroke:none;fill-rule:nonzero;fill:url(#linear0);" d="M 52.25 22.617188 C 51.929688 22.140625 51.285156 22.035156 50.835938 22.355469 L 49.417969 23.324219 L 48.046875 24.339844 L 46.691406 25.394531 C 46.242188 25.761719 45.8125 26.125 45.382812 26.492188 C 44.957031 26.859375 44.527344 27.269531 44.097656 27.632812 C 43.667969 28.023438 43.261719 28.429688 42.851562 28.820312 C 42.445312 29.226562 42.035156 29.636719 41.628906 30.046875 C 41.222656 30.457031 40.835938 30.886719 40.449219 31.316406 C 40.0625 31.746094 39.675781 32.179688 39.289062 32.609375 C 38.902344 33.039062 38.539062 33.492188 38.175781 33.945312 C 37.808594 34.398438 37.445312 34.847656 37.101562 35.300781 C 36.738281 35.753906 36.414062 36.226562 36.050781 36.679688 C 35.707031 37.152344 35.386719 37.628906 35.042969 38.101562 C 34.742188 38.511719 34.460938 38.941406 34.183594 39.351562 C 33.347656 38.511719 32.445312 37.691406 31.523438 36.917969 C 30.558594 36.121094 29.527344 35.367188 28.433594 34.699219 C 27.894531 34.375 27.339844 34.050781 26.757812 33.792969 C 26.480469 33.664062 26.179688 33.535156 25.878906 33.40625 L 25.429688 33.210938 L 25.019531 33.0625 C 24.527344 32.890625 23.949219 33.0625 23.648438 33.535156 C 23.304688 34.074219 23.476562 34.804688 24.011719 35.152344 L 24.375 35.386719 L 24.699219 35.601562 C 24.914062 35.753906 25.128906 35.925781 25.34375 36.097656 C 25.769531 36.441406 26.179688 36.789062 26.566406 37.175781 C 27.359375 37.929688 28.066406 38.769531 28.753906 39.628906 C 30.105469 41.375 31.265625 43.3125 32.402344 45.316406 L 32.617188 45.574219 C 32.851562 45.875 33.175781 46.113281 33.539062 46.285156 C 34.847656 46.890625 36.414062 46.308594 36.996094 44.972656 L 37.660156 43.507812 L 38.367188 42.042969 L 39.097656 40.601562 C 39.355469 40.125 39.613281 39.652344 39.871094 39.179688 C 40.148438 38.703125 40.40625 38.230469 40.683594 37.777344 C 40.964844 37.324219 41.242188 36.851562 41.523438 36.398438 C 41.824219 35.949219 42.101562 35.472656 42.402344 35.042969 C 42.703125 34.589844 43.003906 34.136719 43.324219 33.707031 C 43.644531 33.277344 43.945312 32.824219 44.289062 32.394531 C 44.613281 31.964844 44.933594 31.53125 45.277344 31.101562 C 45.621094 30.691406 45.964844 30.261719 46.308594 29.832031 C 46.671875 29.421875 47.015625 29.011719 47.378906 28.601562 C 47.746094 28.195312 48.109375 27.804688 48.496094 27.398438 L 49.632812 26.234375 L 50.8125 25.09375 L 52.035156 23.992188 L 52.058594 23.972656 C 52.488281 23.605469 52.550781 23.046875 52.25 22.617188 Z M 52.25 22.617188 "/>
<path style=" stroke:none;fill-rule:nonzero;fill:url(#linear1);" d="M 29.011719 17.855469 C 28.710938 17.855469 28.433594 17.660156 28.347656 17.359375 L 27.574219 14.773438 C 27.464844 14.410156 27.679688 14.023438 28.046875 13.914062 C 28.410156 13.804688 28.796875 14.023438 28.90625 14.386719 L 29.675781 16.972656 C 29.785156 17.339844 29.570312 17.726562 29.203125 17.832031 C 29.140625 17.855469 29.074219 17.855469 29.011719 17.855469 Z M 29.011719 17.855469 "/>
<path style=" stroke:none;fill-rule:nonzero;fill:url(#linear2);" d="M 34.355469 17.078125 C 33.96875 17.078125 33.667969 16.777344 33.667969 16.390625 L 33.667969 13.675781 C 33.667969 13.289062 33.96875 12.988281 34.355469 12.988281 C 34.742188 12.988281 35.042969 13.289062 35.042969 13.675781 L 35.042969 16.371094 C 35.042969 16.757812 34.742188 17.078125 34.355469 17.078125 Z M 34.355469 17.078125 "/>
<path style=" stroke:none;fill-rule:nonzero;fill:url(#linear3);" d="M 34.355469 57.035156 C 33.96875 57.035156 33.667969 56.730469 33.667969 56.34375 L 33.667969 53.628906 C 33.667969 53.242188 33.96875 52.941406 34.355469 52.941406 C 34.742188 52.941406 35.042969 53.242188 35.042969 53.628906 L 35.042969 56.34375 C 35.042969 56.710938 34.742188 57.035156 34.355469 57.035156 Z M 34.355469 57.035156 "/>
<path style=" stroke:none;fill-rule:nonzero;fill:url(#linear4);" d="M 15.792969 35.6875 L 13.109375 35.6875 C 12.726562 35.6875 12.425781 35.386719 12.425781 35 C 12.425781 34.613281 12.726562 34.3125 13.109375 34.3125 L 15.816406 34.3125 C 16.199219 34.3125 16.5 34.613281 16.5 35 C 16.5 35.386719 16.179688 35.6875 15.792969 35.6875 Z M 15.792969 35.6875 "/>
<path style=" stroke:none;fill-rule:nonzero;fill:url(#linear5);" d="M 14.011719 41.828125 C 13.710938 41.828125 13.433594 41.632812 13.347656 41.332031 C 13.238281 40.964844 13.453125 40.578125 13.820312 40.472656 L 16.394531 39.695312 C 16.757812 39.585938 17.144531 39.804688 17.253906 40.167969 C 17.359375 40.535156 17.144531 40.921875 16.78125 41.03125 L 14.207031 41.804688 C 14.140625 41.828125 14.078125 41.828125 14.011719 41.828125 Z M 14.011719 41.828125 "/>
<path style=" stroke:none;fill-rule:nonzero;fill:url(#linear6);" d="M 23.753906 20.417969 C 23.539062 20.417969 23.324219 20.3125 23.175781 20.117188 L 21.628906 17.898438 C 21.414062 17.574219 21.480469 17.144531 21.800781 16.929688 C 22.125 16.714844 22.550781 16.777344 22.765625 17.101562 L 24.3125 19.320312 C 24.527344 19.644531 24.460938 20.074219 24.140625 20.289062 C 24.011719 20.375 23.882812 20.417969 23.753906 20.417969 Z M 23.753906 20.417969 "/>
<path style=" stroke:none;fill-rule:nonzero;fill:url(#linear7);" d="M 16.929688 47.902344 C 16.714844 47.902344 16.5 47.792969 16.351562 47.601562 C 16.136719 47.277344 16.199219 46.847656 16.523438 46.628906 L 18.734375 45.078125 C 19.054688 44.863281 19.484375 44.929688 19.699219 45.253906 C 19.914062 45.574219 19.847656 46.007812 19.527344 46.222656 L 17.316406 47.773438 C 17.210938 47.859375 17.058594 47.902344 16.929688 47.902344 Z M 16.929688 47.902344 "/>
<path style=" stroke:none;fill-rule:nonzero;fill:url(#linear8);" d="M 19.460938 24.597656 C 19.3125 24.597656 19.183594 24.554688 19.054688 24.46875 L 16.886719 22.832031 C 16.585938 22.59375 16.523438 22.164062 16.738281 21.863281 C 16.972656 21.558594 17.402344 21.496094 17.703125 21.710938 L 19.871094 23.324219 C 20.171875 23.5625 20.234375 23.992188 20.019531 24.296875 C 19.890625 24.488281 19.675781 24.597656 19.460938 24.597656 Z M 19.460938 24.597656 "/>
<path style=" stroke:none;fill-rule:nonzero;fill:url(#linear9);" d="M 45.425781 20.742188 C 45.277344 20.742188 45.148438 20.699219 45.019531 20.613281 C 44.71875 20.375 44.65625 19.945312 44.871094 19.644531 L 46.480469 17.46875 C 46.714844 17.167969 47.144531 17.101562 47.445312 17.316406 C 47.746094 17.554688 47.808594 17.984375 47.59375 18.285156 L 45.984375 20.460938 C 45.835938 20.65625 45.640625 20.742188 45.425781 20.742188 Z M 45.425781 20.742188 "/>
<path style=" stroke:none;fill-rule:nonzero;fill:url(#linear10);" d="M 21.695312 52.8125 C 21.542969 52.8125 21.414062 52.769531 21.285156 52.683594 C 20.984375 52.445312 20.921875 52.015625 21.136719 51.714844 L 22.746094 49.539062 C 22.980469 49.238281 23.410156 49.171875 23.710938 49.386719 C 24.011719 49.625 24.078125 50.054688 23.863281 50.355469 L 22.253906 52.53125 C 22.101562 52.726562 21.886719 52.8125 21.695312 52.8125 Z M 21.695312 52.8125 "/>
<path style=" stroke:none;fill-rule:nonzero;fill:url(#linear11);" d="M 16.757812 29.808594 C 16.695312 29.808594 16.609375 29.789062 16.542969 29.765625 L 13.992188 28.90625 C 13.625 28.773438 13.433594 28.386719 13.5625 28.023438 C 13.691406 27.65625 14.078125 27.460938 14.441406 27.589844 L 16.996094 28.453125 C 17.359375 28.582031 17.554688 28.96875 17.425781 29.335938 C 17.316406 29.636719 17.039062 29.808594 16.757812 29.808594 Z M 16.757812 29.808594 "/>
<path style=" stroke:none;fill-rule:nonzero;fill:url(#linear12);" d="M 27.636719 55.933594 C 27.574219 55.933594 27.488281 55.914062 27.421875 55.890625 C 27.058594 55.761719 26.867188 55.375 26.996094 55.007812 L 27.851562 52.445312 C 27.980469 52.078125 28.367188 51.886719 28.734375 52.015625 C 29.097656 52.144531 29.289062 52.53125 29.160156 52.898438 L 28.304688 55.460938 C 28.21875 55.742188 27.9375 55.933594 27.636719 55.933594 Z M 27.636719 55.933594 "/>
<path style=" stroke:none;fill-rule:nonzero;fill:url(#linear13);" d="M 40.214844 18.027344 C 40.148438 18.027344 40.0625 18.007812 40 17.984375 C 39.632812 17.855469 39.441406 17.46875 39.570312 17.101562 L 40.425781 14.539062 C 40.554688 14.171875 40.941406 13.976562 41.308594 14.109375 C 41.671875 14.238281 41.863281 14.625 41.738281 14.992188 L 40.878906 17.554688 C 40.769531 17.832031 40.511719 18.027344 40.214844 18.027344 Z M 40.214844 18.027344 "/>
</g>
</svg>
